<mxfile host="65bd71144e">
    <diagram id="i3x2B63e8gMVIjORBYV_" name="Page-1">
        <mxGraphModel dx="1456" dy="978" grid="1" gridSize="10" guides="1" tooltips="1" connect="1" arrows="1" fold="1" page="1" pageScale="1" pageWidth="850" pageHeight="1100" math="0" shadow="0">
            <root>
                <mxCell id="0"/>
                <mxCell id="1" parent="0"/>
                <mxCell id="2" value="Alle Elemente durchgehen" style="rounded=0;whiteSpace=wrap;html=1;" vertex="1" parent="1">
                    <mxGeometry x="100" y="220" width="120" height="60" as="geometry"/>
                </mxCell>
                <mxCell id="3" value="Von allen elemnte jedes zweite wovon nur das erste von den ersten zwei genutzt wird" style="rounded=0;whiteSpace=wrap;html=1;" vertex="1" parent="1">
                    <mxGeometry x="10" y="350" width="360" height="240" as="geometry"/>
                </mxCell>
                <mxCell id="4" value="Berechnen wie viele Elemente dies das ausmacht?" style="rounded=0;whiteSpace=wrap;html=1;" vertex="1" parent="1">
                    <mxGeometry x="10" y="650" width="360" height="240" as="geometry"/>
                </mxCell>
                <mxCell id="5" value="Von der anzahl von den gefilterten elementen den Wert herausfiltern minus eins um sicherzustellen, das dieser vom Benutzer kommt und nicht von der KI" style="rounded=0;whiteSpace=wrap;html=1;" vertex="1" parent="1">
                    <mxGeometry x="10" y="940" width="360" height="240" as="geometry"/>
                </mxCell>
            </root>
        </mxGraphModel>
    </diagram>
</mxfile>